<?xml version="1.0" encoding="UTF-8"?>
<!-- Generator: visioncortex VTracer 0.6.4 -->
<svg version="1.1" xmlns="http://www.w3.org/2000/svg" width="426" height="227">
<path d="M0 0 C2.186498 -0.00438 4.370987 -0.040726 6.557129 -0.078613 C7.946445 -0.084481 9.335771 -0.088451 10.725098 -0.090332 C12.620986 -0.102659 12.620986 -0.102659 14.555176 -0.115234 C17.693848 0.370605 17.693848 0.370605 19.539307 2.168457 C20.896078 4.756336 21.907559 7.425647 22.885742 10.17627 C24.275266 13.949393 25.97325 17.584544 27.631348 21.245605 C30.083701 26.708193 32.462776 32.172564 34.635254 37.753418 C36.080175 41.325733 37.638891 44.845063 39.193848 48.370605 C41.467538 53.529559 43.672222 58.700141 45.73291 63.94873 C47.26012 67.797795 48.875192 71.609911 50.475098 75.429199 C51.576358 78.087049 52.641519 80.755608 53.693848 83.433105 C55.836188 88.832856 58.249802 94.101885 60.693848 99.370605 C63.094021 96.970433 63.395719 94.908707 64.144531 91.671387 C65.09531 87.689102 66.318933 83.787581 67.506348 79.870605 C67.76988 78.996943 68.033413 78.123281 68.304932 77.223145 C70.516853 69.910018 72.784282 62.615124 75.080566 55.328125 C75.71881 53.290927 76.34794 51.251086 76.975098 49.210449 C80.507457 37.748412 80.507457 37.748412 82.631348 32.245605 C84.042013 28.527617 85.134878 24.789264 86.135254 20.944824 C86.392502 19.959497 86.649751 18.97417 86.914795 17.958984 C87.426631 15.970988 87.926216 13.979788 88.412354 11.985352 C88.649622 11.061899 88.88689 10.138447 89.131348 9.187012 C89.438789 7.940931 89.438789 7.940931 89.752441 6.669678 C90.9775 3.677879 92.05944 2.27488 94.693848 0.370605 C97.421382 0.008851 99.733411 -0.121571 102.45166 -0.055176 C103.568054 -0.050244 103.568054 -0.050244 104.707001 -0.045212 C106.27546 -0.034812 107.843881 -0.014899 109.412109 0.013916 C111.817434 0.05808 114.221761 0.075367 116.627441 0.087402 C118.152195 0.100823 119.676937 0.115746 121.20166 0.132324 C122.282917 0.143405 122.282917 0.143405 123.386017 0.154709 C128.457032 0.252197 128.457032 0.252197 130.693848 1.370605 C133.818067 8.598585 136.006896 16.16388 137.811035 23.815918 C139.018522 28.677921 140.38371 33.490497 141.756348 38.308105 C142.01408 39.220842 142.271812 40.133579 142.537354 41.073975 C143.510068 44.474541 144.468572 47.80782 145.783691 51.093262 C147.343337 54.995722 148.031552 59.115577 148.912598 63.214355 C149.624756 66.091477 150.581868 68.632082 151.693848 71.370605 C152.203066 73.279508 152.680973 75.19697 153.131348 77.120605 C154.016379 80.767467 154.958799 84.327115 156.193848 87.870605 C158.073535 93.270978 159.367947 98.813109 160.693848 104.370605 C162.215461 101.555901 163.144917 98.961994 163.842285 95.843262 C164.040881 94.9754 164.239478 94.107539 164.444092 93.213379 C164.753346 91.837144 164.753346 91.837144 165.068848 90.433105 C166.453445 84.428929 167.869119 78.491156 169.756348 72.620605 C171.763516 66.373394 173.237604 60.05399 174.70166 53.663574 C175.751392 49.083017 176.893647 44.527648 178.051025 39.973145 C179.135653 35.676492 180.167574 31.369813 181.174316 27.054199 C181.435513 25.941738 181.696709 24.829277 181.96582 23.683105 C182.482486 21.477303 182.994098 19.270308 183.5 17.062012 C186.725531 3.338922 186.725531 3.338922 189.693848 0.370605 C191.961597 0.270371 194.232479 0.239792 196.502441 0.237793 C197.184361 0.236836 197.86628 0.23588 198.568863 0.234894 C200.013927 0.234212 201.458994 0.236066 202.904053 0.240234 C205.11856 0.245575 207.332863 0.240293 209.547363 0.233887 C210.949056 0.234548 212.350749 0.235829 213.752441 0.237793 C215.034333 0.238921 216.316226 0.240049 217.636963 0.241211 C220.693848 0.370605 220.693848 0.370605 222.693848 1.370605 C221.693848 5.037272 220.693848 8.703939 219.693848 12.370605 C219.47946 13.170469 219.265073 13.970332 219.044189 14.794434 C217.196591 21.650789 215.203585 28.454016 213.131348 35.245605 C212.827773 36.251074 212.524199 37.256543 212.211426 38.29248 C211.767666 39.75041 211.767666 39.75041 211.314941 41.237793 C211.051248 42.105171 210.787554 42.972549 210.515869 43.866211 C209.678714 46.416711 208.691784 48.879565 207.693848 51.370605 C207.363475 52.883502 207.07217 54.405417 206.818848 55.933105 C205.884108 60.869698 204.404282 65.485564 202.768066 70.22998 C200.022547 78.25688 197.66282 86.389599 195.467285 94.581543 C194.331585 98.676946 193.058036 102.726917 191.79541 106.784668 C190.560795 110.803735 189.373658 114.835193 188.193848 118.870605 C182.440332 138.504394 182.440332 138.504394 179.693848 145.370605 C167.813848 145.370605 155.933848 145.370605 143.693848 145.370605 C139.220443 136.423797 139.220443 136.423797 138.256348 131.995605 C137.010035 126.649399 135.646615 121.351216 134.193848 116.058105 C133.891361 114.929128 133.891361 114.929128 133.582764 113.777344 C132.628497 110.310699 131.583667 107.114359 130.158691 103.800293 C128.605336 100.163371 127.660922 96.655459 126.756348 92.808105 C126.417015 91.400115 126.075831 89.99257 125.73291 88.585449 C125.561787 87.882749 125.390664 87.180049 125.214355 86.456055 C123.500555 79.5896 121.688102 72.701646 119.068848 66.120605 C118.007447 63.225877 117.352865 60.857144 116.818848 57.870605 C115.481981 50.517837 112.999869 43.464702 110.693848 36.370605 C106.287208 51.566696 106.287208 51.566696 102.338379 66.88623 C101.531383 69.996834 100.495559 73.000043 99.443848 76.034668 C98.248685 79.7571 97.363608 83.550813 96.436035 87.347168 C94.44406 95.461848 92.064964 103.422405 89.534668 111.381592 C87.942662 116.441209 86.614653 121.532373 85.377441 126.690918 C84.557944 129.90335 83.543848 133.015521 82.439941 136.140137 C81.420505 139.187771 80.5708 142.279377 79.693848 145.370605 C75.049108 145.444766 70.404713 145.499212 65.759521 145.5354 C64.179382 145.550486 62.599285 145.570958 61.019287 145.596924 C58.747942 145.633317 56.47715 145.650333 54.205566 145.663574 C53.14604 145.6868 53.14604 145.6868 52.065109 145.710495 C47.163 145.712177 47.163 145.712177 44.779785 143.977051 C43.452337 142.013335 42.746426 140.189441 42.006348 137.933105 C39.755268 131.406719 37.184587 125.027804 34.599365 118.628662 C31.855561 111.822239 29.252589 104.982424 26.818848 98.058105 C25.438441 94.238278 23.90641 90.55314 22.193848 86.870605 C19.688179 81.476138 17.6565 75.981576 15.693848 70.370605 C13.23409 63.250202 13.23409 63.250202 10.193848 56.370605 C7.938369 51.859649 6.37485 47.119907 4.693848 42.370605 C3.945693 40.307435 3.195767 38.244906 2.443848 36.183105 C1.860514 34.578939 1.277181 32.974772 0.693848 31.370605 C-2.988281 39.925679 -6.218927 48.585553 -9.306152 57.370605 C-10.89928 61.794163 -12.624843 66.152989 -14.398682 70.507324 C-16.787004 76.385353 -18.987971 82.267297 -20.931152 88.308105 C-22.431645 92.924638 -24.050605 97.164485 -26.341309 101.433105 C-29.367439 107.50987 -31.253508 114.186706 -33.368652 120.620605 C-34.809764 124.983192 -36.438885 129.169255 -38.306152 133.370605 C-39.657296 136.696876 -40.98321 140.03303 -42.306152 143.370605 C-42.966152 143.370605 -43.626152 143.370605 -44.306152 143.370605 C-44.306152 144.030605 -44.306152 144.690605 -44.306152 145.370605 C-54.536152 145.370605 -64.766152 145.370605 -75.306152 145.370605 C-73.07037 135.309587 -73.07037 135.309587 -70.931152 131.433105 C-68.784195 127.35891 -66.997084 123.268356 -65.325684 118.97998 C-62.054327 110.607313 -58.443784 102.378691 -54.82251 94.15332 C-52.921975 89.821533 -51.125975 85.462567 -49.399902 81.058105 C-47.646995 76.750961 -45.748662 72.508012 -43.872559 68.253418 C-42.287554 64.648043 -40.743435 61.038155 -39.306152 57.370605 C-37.306171 52.267204 -35.083674 47.267748 -32.872559 42.253418 C-30.954833 37.891209 -29.14117 33.503335 -27.403809 29.065918 C-25.648027 24.754569 -23.751324 20.504561 -21.85498 16.253418 C-20.355992 12.869697 -18.991274 9.501187 -17.778809 6.003418 C-14.608692 -1.816765 -7.227802 -0.001627 0 0 Z " fill="#37457A" transform="translate(77.30615234375,28.62939453125)"/>
<path d="M0 0 C0.66 0 1.32 0 2 0 C5.602579 8.19439 8.486171 16.414463 11 25 C13.423157 33.379203 13.423157 33.379203 16.5625 41.5 C17.966412 44.918221 18.781709 48.119083 19.589844 51.71875 C19.85531 52.89373 20.120776 54.068711 20.394287 55.279297 C20.594172 56.177129 20.794058 57.074961 21 58 C21.614968 57.987472 22.229937 57.974944 22.863541 57.962036 C53.912414 57.333242 84.944389 56.833631 116 57 C116 65.58 116 74.16 116 83 C93.529463 84.206472 71.48992 83.913296 49 83 C49 94.55 49 106.1 49 118 C71.11 118 93.22 118 116 118 C116 126.58 116 135.16 116 144 C83.33 144 50.66 144 17 144 C15.02 138.06 15.02 138.06 13 132 C12.01 129.525 12.01 129.525 11 127 C10.532015 125.257905 10.096597 123.506857 9.6875 121.75 C7.739086 113.749693 5.375455 105.881675 3 98 C2.646797 96.826953 2.293594 95.653906 1.929688 94.445312 C0.03112 88.211432 -1.967923 82.01973 -4.070312 75.851562 C-6.261098 69.131925 -7.941435 62.300966 -9.587891 55.433594 C-10.209832 51.927707 -10.209832 51.927707 -12 49 C-12.881467 37.320561 -8.135331 25.975092 -4.631836 14.992676 C-3.630445 11.834503 -2.659423 8.667367 -1.6875 5.5 C-1.361367 4.437812 -1.035234 3.375625 -0.699219 2.28125 C-0.468477 1.528438 -0.237734 0.775625 0 0 Z " fill="#37467A" transform="translate(304,31)"/>
<path d="M0 0 C32.67 0 65.34 0 99 0 C99 8.58 99 17.16 99 26 C66.33 26 33.66 26 0 26 C0 17.42 0 8.84 0 0 Z " fill="#37467B" transform="translate(321,28)"/>
<path d="M0 0 C3.792744 1.458748 4.947764 3.16673 6.75 6.75 C9.080698 11.240713 11.480288 15.675251 14 20.0625 C14.341843 20.659497 14.683687 21.256494 15.035889 21.871582 C18.572327 28.029324 22.244012 34.104222 25.925781 40.175781 C26.569023 41.252148 27.212266 42.328516 27.875 43.4375 C28.470547 44.426211 29.066094 45.414922 29.679688 46.433594 C31 49 31 49 31 52 C10.87 52 -9.26 52 -30 52 C-23.473848 38.947695 -23.473848 38.947695 -20.476562 34.316406 C-18.441473 31.123792 -16.505071 27.874507 -14.5625 24.625 C-13.779959 23.316399 -12.997407 22.007806 -12.214844 20.699219 C-11.838276 20.069351 -11.461709 19.439482 -11.07373 18.790527 C-10.11817 17.197057 -9.155298 15.607976 -8.191406 14.019531 C-5.602222 9.751574 -3.188476 5.492135 -1 1 C-0.67 0.67 -0.34 0.34 0 0 Z " fill="#F56508" transform="translate(78,122)"/>
<path d="M0 0 C2.64 0 5.28 0 8 0 C8.99 3.63 9.98 7.26 11 11 C13.228256 8.771744 13.692394 7.342384 14.625 4.375 C14.885391 3.557734 15.145781 2.740469 15.414062 1.898438 C15.607422 1.271953 15.800781 0.645469 16 0 C18.31 0 20.62 0 23 0 C23 6.93 23 13.86 23 21 C21.35 21 19.7 21 18 21 C17.67 18.03 17.34 15.06 17 12 C16.690625 13.299375 16.38125 14.59875 16.0625 15.9375 C15.125 19.875 15.125 19.875 14 21 C12.333829 21.040638 10.666119 21.042721 9 21 C8.01 18.03 7.02 15.06 6 12 C5.67 14.97 5.34 17.94 5 21 C3.35 21 1.7 21 0 21 C0 14.07 0 7.14 0 0 Z " fill="#E86917" transform="translate(55,200)"/>
<path d="M0 0 C2.792969 0.507812 2.792969 0.507812 5.480469 2.445312 C7.238051 6.546338 8.335614 10.021437 7.792969 14.507812 C6.401388 17.692728 4.76607 19.693136 1.792969 21.507812 C-1.624873 22.066449 -4.779735 21.934531 -8.207031 21.507812 C-8.867031 20.187813 -9.527031 18.867813 -10.207031 17.507812 C-10.867031 17.507812 -11.527031 17.507812 -12.207031 17.507812 C-13.953928 14.014019 -13.622837 10.326826 -13.207031 6.507812 C-10.785438 -0.393727 -6.614213 -0.370589 0 0 Z M-6.457031 6.070312 C-8.59132 8.508235 -8.59132 8.508235 -8.019531 12.195312 C-7.552836 15.334775 -7.552836 15.334775 -6.207031 16.507812 C-3.874057 16.548742 -1.539979 16.55023 0.792969 16.507812 C2.317889 13.457973 2.028594 10.865476 1.792969 7.507812 C0.624128 5.502965 0.624128 5.502965 -1.207031 4.507812 C-4.252901 4.222615 -4.252901 4.222615 -6.457031 6.070312 Z " fill="#E96714" transform="translate(177.20703125,199.4921875)"/>
<path d="M0 0 C3.052386 0.682005 4.209356 1.195916 6.179688 3.578125 C8.178407 7.268645 8.33339 10.467396 7.558594 14.550781 C6.368052 18.149311 5.069654 19.614575 1.867188 21.640625 C-1.637267 22.388702 -4.633543 22.432263 -8.132812 21.640625 C-11.52032 18.998369 -12.746026 17.595467 -13.566406 13.449219 C-13.782496 9.579242 -13.171122 6.749807 -11.882812 3.078125 C-8.041039 -0.327083 -5.02031 -0.270041 0 0 Z M-6.320312 5.765625 C-8.429118 7.571635 -8.429118 7.571635 -8.507812 10.640625 C-8.337785 13.817647 -8.337785 13.817647 -6.132812 16.640625 C-2.54924 16.890784 -2.54924 16.890784 0.867188 16.640625 C1.973666 14.427669 2.063071 13.093898 2.117188 10.640625 C2.142969 9.939375 2.16875 9.238125 2.195312 8.515625 C2.087031 7.896875 1.97875 7.278125 1.867188 6.640625 C-1.48938 4.402913 -2.71355 3.910718 -6.320312 5.765625 Z " fill="#EB6512" transform="translate(41.1328125,199.359375)"/>
<path d="M0 0 C9.765625 -0.488281 9.765625 -0.488281 13 0 C15.602849 2.641633 17.982538 5.190967 18.019531 9.023438 C17.45726 15.409987 17.45726 15.409987 15.0625 18.5 C10.271572 21.984311 5.814474 21.06761 0 21 C0 14.07 0 7.14 0 0 Z M5 4 C5 7.96 5 11.92 5 16 C6.65 16 8.3 16 10 16 C12.348864 14.059251 12.348864 14.059251 12.4375 10.5625 C12.401265 6.871112 12.401265 6.871112 9.625 5.0625 C7.162997 3.874936 7.162997 3.874936 5 4 Z " fill="#E86919" transform="translate(317,200)"/>
<path d="M0 0 C4.29 0 8.58 0 13 0 C15.067621 4.135243 15.159273 4.717405 14.4375 8.9375 C13.974746 12.508066 13.838579 13.663122 15.4375 17 C16.210938 17.99 16.210938 17.99 17 19 C17 19.66 17 20.32 17 21 C14.8125 21.375 14.8125 21.375 12 21 C10.009772 19.160384 8.610101 17.208139 7 15 C7.33 14.34 7.66 13.68 8 13 C7.34 13 6.68 13 6 13 C6 15.64 6 18.28 6 21 C4.02 21 2.04 21 0 21 C0 14.07 0 7.14 0 0 Z M6 4 C6 5.65 6 7.3 6 9 C7.32 8.67 8.64 8.34 10 8 C9.67 7.01 9.34 6.02 9 5 C8.01 4.67 7.02 4.34 6 4 Z " fill="#E66A17" transform="translate(106,200)"/>
<path d="M0 0 C2.31 0 4.62 0 7 0 C7.61875 1.670625 7.61875 1.670625 8.25 3.375 C9.809122 7.560012 11.50417 11.682232 13.230469 15.800781 C14 18 14 18 14 21 C12.02 21 10.04 21 8 21 C7.67 19.68 7.34 18.36 7 17 C4.69 17 2.38 17 0 17 C-0.33 18.32 -0.66 19.64 -1 21 C-2.98 21 -4.96 21 -7 21 C-4.69 14.07 -2.38 7.14 0 0 Z M3 7 C3 8.32 3 9.64 3 11 C3.66 11 4.32 11 5 11 C4.67 9.68 4.34 8.36 4 7 C3.67 7 3.34 7 3 7 Z " fill="#E76612" transform="translate(400,200)"/>
<path d="M0 0 C1.134375 0.020625 2.26875 0.04125 3.4375 0.0625 C4.255727 2.435661 5.067187 4.810794 5.875 7.1875 C6.105098 7.852656 6.335195 8.517812 6.572266 9.203125 C7.904245 13.141152 8.87675 16.924554 9.4375 21.0625 C7.7875 21.0625 6.1375 21.0625 4.4375 21.0625 C4.1075 19.4125 3.7775 17.7625 3.4375 16.0625 C1.1275 16.3925 -1.1825 16.7225 -3.5625 17.0625 C-3.8925 18.3825 -4.2225 19.7025 -4.5625 21.0625 C-6.5425 21.0625 -8.5225 21.0625 -10.5625 21.0625 C-10.5625 17.859133 -9.928621 16.229587 -8.6875 13.3125 C-7.411421 10.232775 -6.247782 7.217968 -5.375 4 C-4.289432 0.075253 -4.289432 0.075253 0 0 Z M-0.5625 7.0625 C-0.8925 8.3825 -1.2225 9.7025 -1.5625 11.0625 C-0.9025 11.0625 -0.2425 11.0625 0.4375 11.0625 C0.1075 9.7425 -0.2225 8.4225 -0.5625 7.0625 Z " fill="#E96714" transform="translate(255.5625,199.9375)"/>
<path d="M0 0 C2.31 0 4.62 0 7 0 C7.181758 0.652266 7.363516 1.304531 7.550781 1.976562 C8.695177 5.955539 9.802234 9.611792 11.6875 13.3125 C13.075333 16.154253 13.274925 17.884189 13 21 C11.02 21 9.04 21 7 21 C6.34 19.68 5.68 18.36 5 17 C3.35 17 1.7 17 0 17 C-0.33 18.32 -0.66 19.64 -1 21 C-2.98 21 -4.96 21 -7 21 C-5.348865 13.607417 -3.379647 6.793606 0 0 Z M3 6 C2.67 7.65 2.34 9.3 2 11 C2.99 10.67 3.98 10.34 5 10 C4.34 8.68 3.68 7.36 3 6 Z " fill="#E86716" transform="translate(298,200)"/>
<path d="M0 0 C2.31 0 4.62 0 7 0 C14 15.030457 14 15.030457 14 21 C12.35 21 10.7 21 9 21 C8.814375 20.360625 8.62875 19.72125 8.4375 19.0625 C7.057539 16.578738 7.057539 16.578738 3.375 16.25 C2.26125 16.1675 1.1475 16.085 0 16 C0 17.65 0 19.3 0 21 C-1.98 21 -3.96 21 -6 21 C-5.340658 16.134512 -4.034288 11.740924 -2.4375 7.125 C-2.203535 6.436641 -1.96957 5.748281 -1.728516 5.039062 C-1.156475 3.357964 -0.578815 1.678778 0 0 Z M4 6 C3.34 7.65 2.68 9.3 2 11 C2.99 11 3.98 11 5 11 C5 9.35 5 7.7 5 6 C4.67 6 4.34 6 4 6 Z " fill="#E86714" transform="translate(207,200)"/>
<path d="M0 0 C4.29 0 8.58 0 13 0 C13 1.32 13 2.64 13 4 C11.02 4 9.04 4 7 4 C7 4.99 7 5.98 7 7 C8.65 7.33 10.3 7.66 12 8 C12 9.32 12 10.64 12 12 C10.35 12.33 8.7 12.66 7 13 C6.67 13.99 6.34 14.98 6 16 C8.31 16 10.62 16 13 16 C13 17.65 13 19.3 13 21 C8.71 21 4.42 21 0 21 C0 14.07 0 7.14 0 0 Z " fill="#E96815" transform="translate(86,200)"/>
<path d="M0 0 C1.772069 0.080444 3.54376 0.177367 5.3125 0.3125 C5.6425 0.9725 5.9725 1.6325 6.3125 2.3125 C5.3225 3.7975 5.3225 3.7975 4.3125 5.3125 C2.0025 4.9825 -0.3075 4.6525 -2.6875 4.3125 C-2.6875 5.3025 -2.6875 6.2925 -2.6875 7.3125 C-1.945 7.56 -1.2025 7.8075 -0.4375 8.0625 C2.614481 9.449764 4.311948 10.619449 6.3125 13.3125 C6.242689 16.174753 5.796438 17.690507 4.039062 19.949219 C1.812065 21.70764 0.554621 21.654909 -2.25 21.5625 C-3.427559 21.539297 -3.427559 21.539297 -4.628906 21.515625 C-6.6875 21.3125 -6.6875 21.3125 -8.6875 20.3125 C-8.3575 18.6625 -8.0275 17.0125 -7.6875 15.3125 C-4.7175 15.6425 -1.7475 15.9725 1.3125 16.3125 C-1.407148 13.30411 -1.407148 13.30411 -4.25 11.9375 C-6.6875 10.3125 -6.6875 10.3125 -8.1875 7.9375 C-8.6875 5.3125 -8.6875 5.3125 -8 2.5 C-5.098912 -0.244273 -3.907795 0 0 0 Z " fill="#E46817" transform="translate(362.6875,199.6875)"/>
<path d="M0 0 C2.820312 -0.292969 2.820312 -0.292969 6.125 -0.1875 C7.768555 -0.146895 7.768555 -0.146895 9.445312 -0.105469 C10.288359 -0.070664 11.131406 -0.035859 12 0 C11.67 1.98 11.34 3.96 11 6 C9.88625 5.79375 8.7725 5.5875 7.625 5.375 C6.42875 5.25125 5.2325 5.1275 4 5 C1.786299 6.786578 1.786299 6.786578 1.804688 9.164062 C1.827891 9.976172 1.851094 10.788281 1.875 11.625 C1.91625 13.06875 1.9575 14.5125 2 16 C5.3 16 8.6 16 12 16 C11.67 17.65 11.34 19.3 11 21 C6.599983 22.02326 3.997098 22.208922 0 20 C-3.070132 17.697401 -3.900127 16.359544 -4.9375 12.625 C-5.029191 7.306901 -2.876829 4.315243 0 0 Z " fill="#E76513" transform="translate(10,200)"/>
<path d="M0 0 C2.820312 -0.292969 2.820312 -0.292969 6.125 -0.1875 C7.768555 -0.146895 7.768555 -0.146895 9.445312 -0.105469 C10.288359 -0.070664 11.131406 -0.035859 12 0 C12.33 0.66 12.66 1.32 13 2 C12.0625 4.125 12.0625 4.125 11 6 C8.69 5.34 6.38 4.68 4 4 C3.039296 6.882113 2.894181 8.6985 2.9375 11.6875 C2.958125 13.110625 2.97875 14.53375 3 16 C5.97 16 8.94 16 12 16 C11.67 17.65 11.34 19.3 11 21 C7.592595 22.135802 5.894751 21.970966 2.375 21 C-1 19 -1 19 -3.0625 15.875 C-4.225277 11.068853 -3.686337 7.603967 -2 3 C-1.34 2.01 -0.68 1.02 0 0 Z " fill="#E76718" transform="translate(132,200)"/>
<path d="M0 0 C0.997734 0.023203 1.995469 0.046406 3.023438 0.070312 C4.527773 0.097383 4.527773 0.097383 6.0625 0.125 C6.833359 0.148203 7.604219 0.171406 8.398438 0.195312 C8.728437 0.855312 9.058438 1.515312 9.398438 2.195312 C8.408437 3.515312 7.418437 4.835312 6.398438 6.195312 C4.418437 5.535313 2.438438 4.875313 0.398438 4.195312 C0.398438 4.855312 0.398438 5.515312 0.398438 6.195312 C-0.261563 6.195312 -0.921562 6.195312 -1.601562 6.195312 C-1.271563 9.495313 -0.941562 12.795312 -0.601562 16.195312 C2.368438 16.195312 5.338437 16.195312 8.398438 16.195312 C8.068438 17.845313 7.738437 19.495313 7.398438 21.195312 C3.666341 22.172766 1.800898 22.350105 -1.851562 20.945312 C-5.391723 18.692483 -6.400247 17.000574 -7.414062 12.945312 C-7.64681 8.290366 -6.761492 6.27518 -4.601562 2.195312 C-2.601562 0.195312 -2.601562 0.195312 0 0 Z " fill="#E76716" transform="translate(277.6015625,199.8046875)"/>
<path d="M0 0 C5.28 0 10.56 0 16 0 C15.67 1.65 15.34 3.3 15 5 C13.68 5 12.36 5 11 5 C11 10.28 11 15.56 11 21 C9.02 21 7.04 21 5 21 C4.67 15.72 4.34 10.44 4 5 C2.68 4.67 1.36 4.34 0 4 C0 2.68 0 1.36 0 0 Z " fill="#E66612" transform="translate(225,200)"/>
<path d="M0 0 C5.28 0 10.56 0 16 0 C15.67 1.65 15.34 3.3 15 5 C13.68 5 12.36 5 11 5 C10.67 10.28 10.34 15.56 10 21 C8.35 21 6.7 21 5 21 C4.67 15.72 4.34 10.44 4 5 C2.68 5 1.36 5 0 5 C0 3.35 0 1.7 0 0 Z " fill="#E76917" transform="translate(374,200)"/>
<path d="M0 0 C1.98 0 3.96 0 6 0 C6 6.93 6 13.86 6 21 C4.02 21 2.04 21 0 21 C0 14.07 0 7.14 0 0 Z " fill="#EC6912" transform="translate(342,200)"/>
<path d="M0 0 C1.65 0 3.3 0 5 0 C5 6.93 5 13.86 5 21 C3.35 21 1.7 21 0 21 C0 14.07 0 7.14 0 0 Z " fill="#E86B1B" transform="translate(152,200)"/>
</svg>
